# xmcd
#
# Track frame offsets: 
#        150
#        19021
#        39043
#        55960
#        70969
#        83136
#        104601
#        124266
#        142195
#        156688
#        175890
#        196053
#        208574
#        226907
#        246275
#
# Disc length: 3542 seconds
#
# Revision: 2
# Processed by: cddbd v1.5.2PL0 Copyright (c) Steve Scherf et al.
# Submitted via: ExactAudioCopy v1.0b3
#
DISCID=d40dd40f
DTITLE=The Be Good Tanyas - Hello Love (Limited Edition)
DYEAR=2006
DGENRE=Country
TTITLE0=Human Thing
TTITLE1=For The Turnstiles
TTITLE2=A Thousand Tiny Pieces
TTITLE3=Ootischenia
TTITLE4=A Little Blues
TTITLE5=Scattered Leaves
TTITLE6=Hello Love
TTITLE7=Nobody Cares For Me
TTITLE8=Out Of The Wilderness
TTITLE9=Song For R.
TTITLE10=What Are They Doing In Heaven Today
TTITLE11=Crow Waltz
TTITLE12=When Doves Cry
TTITLE13=Back Back Train
TTITLE14=Birds
EXTD=
EXTT0=
EXTT1=
EXTT2=
EXTT3=
EXTT4=
EXTT5=
EXTT6=
EXTT7=
EXTT8=
EXTT9=
EXTT10=
EXTT11=
EXTT12=
EXTT13=
EXTT14=
PLAYORDER=
